<svg width="14" height="19" viewBox="0 0 14 19" fill="none" xmlns="http://www.w3.org/2000/svg">
<path d="M11.072 11.9566V17.7241C11.072 17.9559 10.8841 18.1439 10.6523 18.1439C10.5763 18.1439 10.5017 18.1231 10.4364 18.084L6.87531 15.9473L3.31423 18.084C3.11548 18.2032 2.8577 18.1388 2.73845 17.9401C2.69932 17.8748 2.67865 17.8002 2.67865 17.7241V11.9566C1.14356 10.7261 0.160645 8.83516 0.160645 6.71467C0.160645 3.00626 3.1669 0 6.87531 0C10.5837 0 13.59 3.00626 13.59 6.71467C13.59 8.83516 12.607 10.7261 11.072 11.9566ZM6.87531 11.7507C9.65661 11.7507 11.9113 9.49597 11.9113 6.71467C11.9113 3.93336 9.65661 1.67867 6.87531 1.67867C4.09401 1.67867 1.83931 3.93336 1.83931 6.71467C1.83931 9.49597 4.09401 11.7507 6.87531 11.7507ZM6.87531 10.072C5.02111 10.072 3.51798 8.56884 3.51798 6.71467C3.51798 4.86046 5.02111 3.35733 6.87531 3.35733C8.72949 3.35733 10.2326 4.86046 10.2326 6.71467C10.2326 8.56884 8.72949 10.072 6.87531 10.072Z" fill="#0056D2"/>
</svg>
